<svg width="177" height="88" viewBox="0 0 177 88" fill="none" xmlns="http://www.w3.org/2000/svg">
<path d="M132.861 4.01763C137.712 -3.25067 149.032 -0.0376806 149.341 8.69541L149.822 22.2693C149.96 26.1804 152.61 29.5537 156.378 30.6141L169.452 34.2943C177.864 36.662 178.306 48.4205 170.096 51.4133L157.335 56.0651C153.658 57.4055 151.269 60.9683 151.424 64.8787L151.964 78.4504C152.312 87.1821 141.266 91.2362 135.882 84.3528L127.515 73.6539C125.104 70.5712 120.977 69.3998 117.306 70.7562L104.565 75.4638C96.3685 78.4925 89.0994 69.2396 93.9823 61.9926L101.572 50.7285C103.759 47.4829 103.597 43.1962 101.173 40.124L92.7589 29.4618C87.3454 22.602 93.8991 12.8293 102.3 15.2338L115.358 18.9711C119.121 20.0479 123.148 18.5699 125.321 15.3148L132.861 4.01763Z" fill="#EB5F69"/>
<path d="M92.7734 29.8255C87.8095 23.5353 92.9077 14.796 100.266 15.2417L171.387 35.4267C177.183 38.5288 177.616 46.9028 172.315 50.6339L117.577 71.0295C117.491 71.0583 117.406 71.0884 117.321 71.1199L104.58 75.8275C96.3831 78.8562 89.1139 69.6033 93.9969 62.3563L101.586 51.0922C103.773 47.8466 103.612 43.5599 101.188 40.4877L92.7734 29.8255Z" fill="#FF0000"/>
<path d="M146.796 48.9783C146.796 50.1968 146.832 51.1287 146.904 51.7379C146.975 52.3472 147.119 52.8131 147.37 53.064C147.585 53.3507 147.943 53.4941 148.445 53.4941C149.09 53.4941 149.52 53.2432 149.771 52.7414C150.022 52.2397 150.129 51.4154 150.165 50.2327L153.857 50.4477C153.892 50.6269 153.892 50.8419 153.892 51.1287C153.892 52.8848 153.426 54.2109 152.459 55.071C151.491 55.9312 150.129 56.3612 148.373 56.3612C146.259 56.3612 144.789 55.6803 143.929 54.3542C143.069 53.0282 142.639 50.9853 142.639 48.1898V44.8567C142.639 41.9896 143.069 39.9109 143.965 38.5848C144.861 37.2588 146.366 36.6136 148.48 36.6136C149.95 36.6136 151.097 36.9004 151.885 37.4379C152.674 37.9755 153.211 38.8357 153.534 39.9467C153.857 41.0936 154 42.6705 154 44.6775V47.9389H146.796V48.9783ZM147.334 39.9826C147.119 40.2693 146.975 40.6993 146.904 41.3086C146.832 41.9179 146.796 42.8497 146.796 44.1041V45.466H149.95V44.1041C149.95 42.8855 149.914 41.9537 149.843 41.3086C149.771 40.6635 149.592 40.2334 149.376 39.9826C149.162 39.7317 148.803 39.5883 148.373 39.5883C147.871 39.5525 147.549 39.6958 147.334 39.9826Z" fill="#D9D9D9"/>
<path d="M126.081 37.0437V56.1462H122.712L122.354 53.8166H122.246C121.35 55.5728 119.952 56.4688 118.125 56.4688C116.87 56.4688 115.938 56.0387 115.329 55.2144C114.72 54.3901 114.433 53.0998 114.433 51.3078V37.0437H118.734V51.057C118.734 51.9171 118.841 52.5264 119.02 52.8848C119.2 53.2432 119.522 53.4224 119.952 53.4224C120.311 53.4224 120.669 53.3149 121.028 53.064C121.386 52.849 121.637 52.5622 121.78 52.2038V37.0437H126.081Z" fill="#D9D9D9"/>
<path d="M115.723 33.4597H111.458V56.1104H107.265V33.4597H103V29.9833H115.723V33.4597Z" fill="#D9D9D9"/>
<path d="M140.309 40.0901C140.058 38.8715 139.628 38.0114 139.055 37.4738C138.481 36.9362 137.657 36.6495 136.653 36.6495C135.865 36.6495 135.112 36.8645 134.431 37.3304C133.75 37.7605 133.213 38.3698 132.855 39.0865H132.819V29.0156H128.661V56.1104H132.209L132.639 54.3184H132.747C133.069 54.9635 133.571 55.4653 134.252 55.8595C134.933 56.2179 135.65 56.4329 136.474 56.4329C137.944 56.4329 138.983 55.752 139.664 54.4259C140.345 53.0998 140.704 50.9853 140.704 48.154V45.1434C140.668 42.9572 140.56 41.2728 140.309 40.0901ZM136.367 47.8672C136.367 49.265 136.295 50.3402 136.188 51.1287C136.08 51.9171 135.865 52.4906 135.614 52.8131C135.327 53.1357 134.969 53.3149 134.539 53.3149C134.181 53.3149 133.858 53.2432 133.571 53.064C133.285 52.8848 133.034 52.6339 132.855 52.3114V41.4878C132.998 40.986 133.249 40.556 133.607 40.1976C133.965 39.875 134.36 39.6958 134.754 39.6958C135.184 39.6958 135.542 39.875 135.758 40.1976C136.008 40.556 136.152 41.1294 136.259 41.9179C136.367 42.7422 136.403 43.8891 136.403 45.3585V47.8672H136.367Z" fill="#D9D9D9"/>
<path d="M6.04963 58.0156C4.23284 58.0156 2.76799 57.2852 1.65509 55.8242C0.551695 54.3633 0 52.3192 0 49.692V34.7388C0 31.596 0.480356 29.1897 1.44107 27.5201C2.41129 25.8504 3.98553 25.0156 6.16377 25.0156C7.35277 25.0156 8.4086 25.298 9.33127 25.8627C10.2634 26.4275 10.9959 27.2746 11.5285 28.404C12.0612 29.5212 12.3275 30.933 12.3275 32.6395V38.2377H7.33375V33.4498C7.33375 32.4799 7.23863 31.8292 7.04839 31.4978C6.85815 31.154 6.56328 30.9821 6.16377 30.9821C5.69768 30.9821 5.38379 31.2031 5.22208 31.6451C5.06038 32.0748 4.97953 32.6518 4.97953 33.3761V49.5999C4.97953 50.4961 5.0794 51.1283 5.27916 51.4967C5.48842 51.865 5.78329 52.0491 6.16377 52.0491C6.59181 52.0491 6.89144 51.822 7.06265 51.3677C7.24338 50.9135 7.33375 50.3242 7.33375 49.5999V43.7623H12.3846V49.8945C12.3846 52.7427 11.8282 54.8114 10.7153 56.1004C9.60236 57.3772 8.04715 58.0156 6.04963 58.0156Z" fill="#282828"/>
<path d="M20.2035 58.0156C15.9421 58.0156 13.8114 55.1613 13.8114 49.4526V38.3666C13.8114 35.764 14.3774 33.6892 15.5093 32.1423C16.6412 30.5831 18.206 29.8036 20.2035 29.8036C22.2105 29.8036 23.78 30.5831 24.9119 32.1423C26.0438 33.6892 26.6098 35.764 26.6098 38.3666V49.4526C26.6098 55.1613 24.4744 58.0156 20.2035 58.0156ZM20.2035 52.933C20.6315 52.933 20.9359 52.7366 21.1166 52.3438C21.3069 51.9386 21.402 51.4291 21.402 50.8153V37.317C21.402 35.7087 21.0025 34.9046 20.2035 34.9046C19.4045 34.9046 19.005 35.7087 19.005 37.317V50.8153C19.005 51.4291 19.0953 51.9386 19.2761 52.3438C19.4663 52.7366 19.7754 52.933 20.2035 52.933Z" fill="#282828"/>
<path d="M28.5074 57.721V30.0982H33.5012V33.3025C33.7295 32.173 34.1195 31.3075 34.6712 30.7059C35.2229 30.1044 36.0314 29.8036 37.0968 29.8036C37.9529 29.8036 38.6805 30.0614 39.2798 30.577C39.8885 31.0804 40.3166 31.7494 40.5639 32.5843C40.9539 31.6758 41.4105 30.9883 41.9336 30.5218C42.4663 30.043 43.2225 29.8036 44.2022 29.8036C45.3912 29.8036 46.3044 30.135 46.9417 30.798C47.5885 31.4487 48.0356 32.3571 48.2829 33.5234C48.5397 34.6775 48.6681 36.0156 48.6681 37.5379V57.721H43.5744V37.4275C43.5744 35.6473 43.2225 34.7573 42.5186 34.7573C42.1476 34.7573 41.8623 34.923 41.6625 35.2545C41.4628 35.5737 41.3249 35.9727 41.2488 36.4515C41.1727 36.9302 41.1346 37.409 41.1346 37.8878V57.721H36.0409V37.4275C36.0409 36.8504 35.9839 36.2734 35.8697 35.6964C35.7651 35.1194 35.4892 34.8309 35.0422 34.8309C34.6617 34.8309 34.3668 35.0089 34.1576 35.365C33.9483 35.721 33.8056 36.1629 33.7295 36.6908C33.6534 37.2065 33.6154 37.716 33.6154 38.2193V57.721H28.5074Z" fill="#282828"/>
<path d="M54.8034 58.0156C53.6619 58.0156 52.7868 57.7087 52.178 57.0949C51.5788 56.481 51.1698 55.6278 50.951 54.5352C50.7322 53.4302 50.6228 52.1412 50.6228 50.668V30.0982H55.7593V49.8945C55.7593 50.9994 55.8259 51.7729 55.9591 52.2148C56.0922 52.6445 56.4061 52.8594 56.9007 52.8594C57.4334 52.8594 57.7663 52.5525 57.8995 51.9386C58.0422 51.3248 58.1135 50.5329 58.1135 49.5631V30.0982H63.2072V57.721H58.0993V54.7746C57.7759 55.8304 57.3859 56.6345 56.9293 57.1869C56.4822 57.7394 55.7736 58.0156 54.8034 58.0156Z" fill="#282828"/>
<path d="M65.2618 57.721V30.0982H70.3697V33.6155C70.56 32.5597 70.9119 31.6635 71.4256 30.9269C71.9487 30.178 72.6716 29.8036 73.5943 29.8036C75.0782 29.8036 76.153 30.3929 76.8189 31.5714C77.4942 32.75 77.8319 34.3644 77.8319 36.4146V57.721H72.7953V37.096C72.7953 36.5558 72.7097 36.0586 72.5385 35.6044C72.3672 35.1378 72.0724 34.9046 71.6538 34.9046C71.2639 34.9046 70.9737 35.0826 70.7835 35.4386C70.6028 35.7824 70.4886 36.2182 70.4411 36.7461C70.3935 37.2617 70.3697 37.7773 70.3697 38.293V57.721H65.2618Z" fill="#282828"/>
<path d="M83.7388 58.0156C82.5498 58.0156 81.6414 57.6596 81.0136 56.9475C80.3954 56.2355 79.9721 55.2595 79.7438 54.0195C79.5155 52.7796 79.4014 51.3739 79.4014 49.8025C79.4014 48.1205 79.5298 46.7455 79.7866 45.6775C80.0434 44.5971 80.481 43.7132 81.0993 43.0257C81.7271 42.3382 82.5879 41.755 83.6818 41.2762L86.8493 39.8767V37.0407C86.8493 35.5552 86.4735 34.8125 85.7221 34.8125C85.0372 34.8125 84.6948 35.4141 84.6948 36.6172V38.2746H79.7295C79.72 38.1763 79.7153 38.0536 79.7153 37.9062C79.7153 37.7467 79.7153 37.5686 79.7153 37.3722C79.7153 34.6222 80.2146 32.6763 81.2134 31.5346C82.2217 30.3806 83.8149 29.8036 85.9932 29.8036C87.1346 29.8036 88.1572 30.0675 89.0608 30.5954C89.9644 31.111 90.6778 31.8783 91.201 32.8973C91.7337 33.9163 92 35.1747 92 36.6724V57.721H86.9206V54.4431C86.6733 55.5971 86.2643 56.481 85.6935 57.0949C85.1228 57.7087 84.4713 58.0156 83.7388 58.0156ZM85.7506 52.8962C86.1691 52.8962 86.4545 52.6691 86.6067 52.2148C86.7589 51.7606 86.835 51.2695 86.835 50.7416V43.0441C86.1311 43.4124 85.5842 43.8789 85.1942 44.4436C84.8042 44.9961 84.6092 45.8125 84.6092 46.8929V50.447C84.6092 52.0798 84.9897 52.8962 85.7506 52.8962Z" fill="#282828"/>
</svg>
