<svg width="86" height="89" viewBox="0 0 86 89" fill="none" xmlns="http://www.w3.org/2000/svg">
<path d="M42.1046 4.19488C46.9558 -3.07343 58.2754 0.139565 58.5847 8.87265L59.0655 22.4466C59.204 26.3577 61.8541 29.7309 65.6213 30.7913L78.6956 34.4715C87.1073 36.8393 87.5495 48.5977 79.3394 51.5906L66.5784 56.2424C62.9016 57.5827 60.5123 61.1455 60.6679 65.056L61.2081 78.6277C61.5556 87.3593 50.5093 91.4135 45.1258 84.5301L36.7583 73.8311C34.3474 70.7484 30.2206 69.5771 26.5497 70.9335L13.8091 75.641C5.6122 78.6697 -1.65698 69.4169 3.22595 62.1699L10.8155 50.9057C13.0024 47.6602 12.8411 43.3734 10.4167 40.3013L2.00252 29.639C-3.41095 22.7792 3.14274 13.0065 11.544 15.411L24.6021 19.1483C28.3646 20.2252 32.3917 18.7472 34.5643 15.4921L42.1046 4.19488Z" fill="#EB5F69"/>
<path d="M2.01701 30.0028C-2.94691 23.7127 2.15128 14.9733 9.50949 15.4191L80.6311 35.604C86.4265 38.7061 86.86 47.0801 81.5586 50.8113L26.8206 71.2068C26.7349 71.2356 26.6494 71.2657 26.5642 71.2972L13.8236 76.0048C5.62669 79.0335 -1.64249 69.7807 3.24044 62.5336L10.83 51.2695C13.0168 48.0239 12.8556 43.7372 10.4312 40.6651L2.01701 30.0028Z" fill="#FF0000"/>
<path d="M29.2078 36.4275L42.6037 47.8775C48.5575 40.6804 38.9322 31.4295 33.3753 27.7037C32.899 25.9589 34.3676 25.8862 35.1615 26.0679C56.846 34.3083 49.1528 52.2395 48.2597 53.0573L51.832 56.3288C52.7846 60.0364 49.4505 60.2363 47.6644 59.8728L43.199 56.0561C37.7216 59.9819 29.4062 55.6926 25.9331 53.0573L25.6355 54.693H24.147L19.0864 59.8728C14.7349 60.4129 14.7203 57.6919 15.2164 56.0561L20.8725 51.6942L21.4679 50.0585H23.5517L25.6355 48.4228C25.6355 48.4228 34.4102 53.5083 37.8407 50.8764L25.3378 39.4263L21.4679 42.4251L16.4072 37.2454L25.3378 29.0668L34.5661 31.2477L29.2078 36.4275Z" fill="#D9D9D9"/>
</svg>
