<?xml version="1.0" encoding="UTF-8" standalone="no"?>
<svg
   className="logo"
   viewBox="0 0 454 87"
   fill="none"
   xmlns="http://www.w3.org/2000/svg">
   <path d="M120.721 14.1896C119.307 8.94024 115.168 4.80134 109.919 3.38805C100.329 0.763382 61.9683 0.763382 61.9683 0.763382C61.9683 0.763382 23.6077 0.763382 14.0176 3.2871C8.86917 4.70039 4.62931 8.94024 3.21603 14.1896C0.692307 23.7797 0.692307 43.6667 0.692307 43.6667C0.692307 43.6667 0.692307 63.6546 3.21603 73.1438C4.62931 78.3931 8.76822 82.532 14.0176 83.9453C23.7087 86.57 61.9683 86.57 61.9683 86.57C61.9683 86.57 100.329 86.57 109.919 84.0462C115.168 82.633 119.307 78.4941 120.721 73.2447C123.244 63.6546 123.244 43.7676 123.244 43.7676C123.244 43.7676 123.345 23.7797 120.721 14.1896V14.1896Z" fill="#FF0000" />
   <path d="M49.7535 25.294V62.0394L81.6533 43.6667L49.7535 25.294Z" fill="white" />
   <path d="M433.558 63.2285C433.558 66.6608 433.659 69.2855 433.861 71.0016C434.063 72.7177 434.466 74.0301 435.173 74.7367C435.779 75.5443 436.788 75.9481 438.202 75.9481C440.019 75.9481 441.23 75.2415 441.937 73.8282C442.643 72.4149 442.946 70.0931 443.047 66.7618L453.445 67.3675C453.546 67.8722 453.546 68.4779 453.546 69.2855C453.546 74.232 452.233 77.9671 449.508 80.3899C446.782 82.8126 442.946 84.024 438 84.024C432.044 84.024 427.905 82.106 425.482 78.3709C423.059 74.6358 421.848 68.8817 421.848 61.0077V51.6194C421.848 43.5435 423.059 37.6885 425.583 33.9534C428.107 30.2183 432.347 28.4012 438.302 28.4012C442.441 28.4012 445.672 29.2088 447.893 30.723C450.114 32.2372 451.628 34.66 452.536 37.7894C453.445 41.0198 453.849 45.4615 453.849 51.1147V60.301H433.558V63.2285ZM435.072 37.8904C434.466 38.698 434.063 39.9093 433.861 41.6255C433.659 43.3416 433.558 45.9663 433.558 49.4995V53.3356H442.441V49.4995C442.441 46.0672 442.34 43.4426 442.139 41.6255C441.937 39.8084 441.432 38.597 440.826 37.8904C440.221 37.1837 439.211 36.7799 438 36.7799C436.586 36.679 435.678 37.0828 435.072 37.8904Z" fill="#282828" />
   <path d="M375.209 29.6126V83.4183H365.72L364.711 76.8567H364.408C361.884 81.8031 357.947 84.3269 352.799 84.3269C349.266 84.3269 346.641 83.1155 344.925 80.7937C343.209 78.4718 342.401 74.8377 342.401 69.7902V29.6126H354.515V69.0836C354.515 71.5064 354.818 73.2225 355.322 74.232C355.827 75.2415 356.736 75.7462 357.947 75.7462C358.957 75.7462 359.966 75.4434 360.976 74.7367C361.985 74.131 362.692 73.3234 363.096 72.3139V29.6126H375.209Z" fill="#282828" />
   <path d="M346.035 19.5177H334.022V83.3174H322.211V19.5177H310.198V9.72562H346.035V19.5177Z" fill="#282828" />
   <path d="M415.286 38.1932C414.579 34.761 413.368 32.3382 411.753 30.8239C410.138 29.3097 407.816 28.5021 404.989 28.5021C402.768 28.5021 400.648 29.1078 398.73 30.4202C396.812 31.6315 395.298 33.3477 394.289 35.3666H394.188V7H382.478V83.3174H392.472L393.683 78.2699H393.986C394.894 80.087 396.308 81.5003 398.226 82.6107C400.144 83.6202 402.163 84.2259 404.485 84.2259C408.623 84.2259 411.551 82.3079 413.469 78.5728C415.387 74.8377 416.397 68.8817 416.397 60.9067V52.427C416.296 46.2691 415.993 41.5245 415.286 38.1932ZM404.182 60.0991C404.182 64.0361 403.98 67.0646 403.677 69.2855C403.374 71.5064 402.768 73.1215 402.062 74.0301C401.254 74.9386 400.245 75.4434 399.033 75.4434C398.024 75.4434 397.115 75.2415 396.308 74.7367C395.5 74.232 394.793 73.5253 394.289 72.6168V42.1302C394.693 40.7169 395.399 39.5056 396.409 38.4961C397.418 37.5875 398.529 37.0828 399.639 37.0828C400.85 37.0828 401.86 37.5875 402.466 38.4961C403.172 39.5056 403.576 41.1207 403.879 43.3416C404.182 45.6634 404.283 48.8938 404.283 53.0327V60.0991H404.182Z" fill="#282828" />
   <g transform="translate(20.853658,-159.00914)">
      <path d="m 124.47573,242.98063 q -6.78283,0 -10.22641,-6.78853 -3.44359,-6.7885 -3.44359,-18.22178 0,-5.62731 0.73046,-11.34394 0.78263,-5.80596 2.29572,-10.98666 1.56527,-5.27005 3.91316,-9.37887 2.3479,-4.19814 5.5828,-6.52054 3.23488,-2.4117 7.40893,-2.4117 3.54794,0 6.00019,1.16119 2.50443,1.07188 4.95669,3.39424 l -3.02618,10.89735 q -1.77398,-1.78645 -3.70448,-2.94763 -1.87832,-1.25053 -4.22622,-1.25053 -3.13053,0 -5.42626,2.67969 -2.24356,2.67967 -3.70448,6.96715 -1.46091,4.28748 -2.19136,9.37885 -0.67828,5.00205 -0.67828,9.64683 0,7.23511 1.72179,10.80802 1.77396,3.5729 5.58278,3.5729 2.08703,0 4.2784,-0.89324 2.19138,-0.98255 4.33058,-2.50103 v 11.34396 q -1.56527,1.07186 -4.17405,2.23305 -2.60878,1.16122 -6.00019,1.16122 z"
         style="font-style:italic;font-weight:bold;font-size:64px;line-height:1.25;-inkscape-font-specification:'sans-serif, Bold Italic';letter-spacing:3.82px;white-space:pre;fill:#282828;fill-opacity:1;stroke-width:0.999998"
         />
      <path d="m 152.65984,242.98063 q -3.18271,0 -5.68714,-2.23307 -2.45226,-2.32239 -3.86099,-6.52055 -1.35657,-4.19815 -1.35657,-10.00411 0,-6.43122 0.93916,-12.14786 0.93916,-5.80596 2.81748,-10.18276 1.87832,-4.46612 4.69581,-6.96716 2.86966,-2.50101 6.67847,-2.50101 4.95669,0 7.87851,5.09136 2.92183,5.09139 2.92183,14.20228 0,6.16326 -0.88698,11.79056 -0.88698,5.62732 -2.7653,10.00412 -1.82615,4.37681 -4.69581,6.96716 -2.81747,2.50104 -6.67847,2.50104 z m 0.62611,-10.71872 q 2.1392,0 3.60011,-2.94763 1.5131,-2.94764 2.29573,-7.59242 0.78263,-4.73408 0.78263,-10.00411 0,-3.66221 -0.8348,-6.07393 -0.78264,-2.50103 -2.81749,-2.50103 -1.72179,0 -3.02618,2.05441 -1.30439,1.96509 -2.13921,5.18071 -0.8348,3.21561 -1.2522,6.87784 -0.41741,3.66222 -0.41741,6.96715 0,8.03901 3.80882,8.03901 z"
         style="font-style:italic;font-weight:bold;font-size:64px;line-height:1.25;-inkscape-font-specification:'sans-serif, Bold Italic';letter-spacing:3.82px;white-space:pre;fill:#282828;fill-opacity:1;stroke-width:0.999998"
         />
      <path d="m 167.74788,242.08739 6.05237,-48.77007 h 5.84367 l -0.52176,9.02157 h 0.2087 q 1.66962,-4.3768 3.80882,-7.1458 2.19138,-2.76898 5.16539,-2.76898 2.92182,0 4.53927,2.67967 1.61744,2.59034 2.1392,7.23511 h 0.2087 q 1.61744,-4.3768 3.861,-7.1458 2.24354,-2.76898 5.21755,-2.76898 3.54794,0 5.32191,3.84086 1.77398,3.75154 1.77398,10.18275 0,3.2156 -0.57394,7.86037 l -3.39141,27.7793 h -7.66981 l 3.49576,-28.49387 q 0.4174,-3.12628 0.4174,-5.1807 0,-5.35934 -2.50442,-5.35934 -1.77397,0 -3.18272,2.50103 -1.35655,2.50103 -2.40007,6.7885 -1.04352,4.19815 -1.66962,9.46818 l -2.45225,20.2762 h -7.66981 l 3.49576,-28.49387 q 0.41741,-3.12628 0.41741,-5.1807 0,-5.35934 -2.50444,-5.35934 -1.77396,0 -3.18271,2.59034 -1.35656,2.50104 -2.40007,6.78852 -0.99134,4.28748 -1.66962,9.46818 l -2.50442,20.18687 z"
         style="font-style:italic;font-weight:bold;font-size:64px;line-height:1.25;-inkscape-font-specification:'sans-serif, Bold Italic';letter-spacing:3.82px;white-space:pre;fill:#282828;fill-opacity:1;stroke-width:0.999998"
         />
      <path d="m 218.68055,242.98063 q -3.70447,0 -5.47844,-3.75157 -1.77397,-3.84086 -1.77397,-10.27208 0,-1.60779 0.15653,-4.10882 0.15652,-2.59035 0.46957,-5.18069 l 3.23489,-26.35015 h 7.66981 l -3.49576,28.49387 q -0.4174,3.12629 -0.4174,5.18071 0,5.35932 2.7653,5.35932 1.7218,0 3.13055,-2.501 1.40873,-2.59036 2.45224,-6.87784 1.04352,-4.28748 1.66963,-9.46818 l 2.50442,-20.18688 h 7.66982 l -6.05237,48.77007 h -5.84367 l 0.52175,-9.02157 h -0.26087 q -1.66963,4.37679 -3.80882,7.14581 -2.1392,2.769 -5.11321,2.769 z"
         style="font-style:italic;font-weight:bold;font-size:64px;line-height:1.25;-inkscape-font-specification:'sans-serif, Bold Italic';letter-spacing:3.82px;white-space:pre;fill:#282828;fill-opacity:1;stroke-width:0.999998"
         />
      <path d="m 239.29921,242.08739 6.05238,-48.77007 h 5.84366 l -0.52176,9.02157 h 0.2087 q 1.66963,-4.3768 3.80882,-7.1458 2.19138,-2.76898 5.16539,-2.76898 3.6523,0 5.47844,3.84086 1.87831,3.75154 1.87831,10.18275 0,3.2156 -0.57392,7.86037 l -3.39141,27.7793 h -7.66981 l 3.49576,-28.49387 q 0.4174,-3.12628 0.4174,-5.1807 0,-5.35934 -2.7653,-5.35934 -1.77397,0 -3.18272,2.59034 -1.35655,2.50104 -2.40007,6.78852 -0.99134,4.28748 -1.66963,9.46818 l -2.50442,20.18687 z"
         style="font-style:italic;font-weight:bold;font-size:64px;line-height:1.25;-inkscape-font-specification:'sans-serif, Bold Italic';letter-spacing:3.82px;white-space:pre;fill:#282828;fill-opacity:1;stroke-width:0.999998"
         />
      <path d="m 275.30965,242.98063 q -2.08702,0 -3.91317,-1.69714 -1.82614,-1.78646 -2.97401,-5.6273 -1.14786,-3.93021 -1.14786,-10.36143 0,-5.9846 0.93916,-11.79056 0.93915,-5.80596 2.66096,-10.54005 1.7218,-4.82341 4.12187,-7.68173 2.45224,-2.85831 5.47844,-2.85831 2.71313,0 4.38274,1.96508 1.7218,1.96511 2.66096,5.18071 h 0.20871 l 1.46092,-6.25258 h 5.89583 l -6.05237,48.77007 h -5.73931 l 0.36523,-6.34188 h -0.2087 q -1.5131,3.2156 -3.49577,5.27001 -1.9305,1.96511 -4.64363,1.96511 z m 3.02619,-10.62941 q 1.56527,0 2.92183,-2.14371 1.35657,-2.14374 2.29573,-5.44867 0.99133,-3.39427 1.40874,-7.23513 0.36523,-3.21562 0.36523,-7.32444 0,-3.12629 -0.93916,-5.09138 -0.93916,-2.05441 -2.60878,-2.05441 -1.40875,0 -2.66096,1.96508 -1.20003,1.87578 -2.1392,5.00207 -0.88698,3.12629 -1.40874,6.96715 -0.52176,3.84088 -0.52176,7.68173 0,7.68171 3.28707,7.68171 z"
         style="font-style:italic;font-weight:bold;font-size:64px;line-height:1.25;-inkscape-font-specification:'sans-serif, Bold Italic';letter-spacing:3.82px;white-space:pre;fill:#282828;fill-opacity:1;stroke-width:0.999998"
         />
   </g>
</svg>
